<svg width="43" height="43" viewBox="0 0 43 43" fill="none" xmlns="http://www.w3.org/2000/svg">
<path d="M17.9034 30.7939C13.4276 30.7939 9.4709 28.5022 7.16136 25.0648C7.21507 21.4841 14.3227 19.5147 17.9034 19.5147C21.4841 19.5147 28.5917 21.4841 28.6455 25.0648C27.4618 26.8272 25.863 28.2715 23.9898 29.2706C22.1166 30.2697 20.0264 30.7928 17.9034 30.7939ZM17.9034 5.37102C19.3279 5.37102 20.694 5.9369 21.7013 6.94416C22.7086 7.95142 23.2744 9.31756 23.2744 10.742C23.2744 12.1665 22.7086 13.5327 21.7013 14.5399C20.694 15.5472 19.3279 16.1131 17.9034 16.1131C16.4789 16.1131 15.1128 15.5472 14.1055 14.5399C13.0983 13.5327 12.5324 12.1665 12.5324 10.742C12.5324 9.31756 13.0983 7.95142 14.1055 6.94416C15.1128 5.9369 16.4789 5.37102 17.9034 5.37102ZM17.9034 0C15.5523 0 13.2242 0.463085 11.0521 1.36282C8.87993 2.26255 6.90627 3.5813 5.24379 5.24379C1.88625 8.60133 0 13.1551 0 17.9034C0 22.6517 1.88625 27.2055 5.24379 30.563C6.90627 32.2255 8.87993 33.5443 11.0521 34.444C13.2242 35.3437 15.5523 35.8068 17.9034 35.8068C22.6517 35.8068 27.2055 33.9206 30.563 30.563C33.9206 27.2055 35.8068 22.6517 35.8068 17.9034C35.8068 8.00282 27.7503 0 17.9034 0Z" fill="#ECF1F0"/>
<path d="M42.0341 31.1364C42.0341 37.155 37.155 42.0341 31.1364 42.0341C25.1177 42.0341 20.2386 37.155 20.2386 31.1364C20.2386 25.1177 25.1177 20.2386 31.1364 20.2386C37.155 20.2386 42.0341 25.1177 42.0341 31.1364Z" fill="#2C223B"/>
<path fill-rule="evenodd" clip-rule="evenodd" d="M31.1364 23.3523C26.8374 23.3523 23.3523 26.8374 23.3523 31.1364C23.3523 35.4353 26.8374 38.9205 31.1364 38.9205C35.4353 38.9205 38.9205 35.4353 38.9205 31.1364C38.9205 26.8374 35.4353 23.3523 31.1364 23.3523ZM31.844 33.9669C31.844 34.1546 31.7695 34.3346 31.6367 34.4673C31.504 34.6 31.324 34.6746 31.1364 34.6746C30.9487 34.6746 30.7687 34.6 30.636 34.4673C30.5033 34.3346 30.4287 34.1546 30.4287 33.9669V31.844H28.3058C28.1181 31.844 27.9381 31.7695 27.8054 31.6367C27.6727 31.504 27.5981 31.324 27.5981 31.1364C27.5981 30.9487 27.6727 30.7687 27.8054 30.636C27.9381 30.5033 28.1181 30.4287 28.3058 30.4287H30.4287V28.3058C30.4287 28.1181 30.5033 27.9381 30.636 27.8054C30.7687 27.6727 30.9487 27.5981 31.1364 27.5981C31.324 27.5981 31.504 27.6727 31.6367 27.8054C31.7695 27.9381 31.844 28.1181 31.844 28.3058V30.4287H33.9669C34.1546 30.4287 34.3346 30.5033 34.4673 30.636C34.6 30.7687 34.6746 30.9487 34.6746 31.1364C34.6746 31.324 34.6 31.504 34.4673 31.6367C34.3346 31.7695 34.1546 31.844 33.9669 31.844H31.844V33.9669Z" fill="#ECF1F0"/>
</svg>
