<svg width="41" height="41" viewBox="0 0 41 41" fill="none" xmlns="http://www.w3.org/2000/svg">
<path d="M16.5779 0.0112305C12.4102 0.0112305 8.41325 1.66684 5.46625 4.61384C2.51925 7.56084 0.863647 11.5578 0.863647 15.7255C0.863647 19.8932 2.51925 23.8902 5.46625 26.8372C8.41325 29.7842 12.4102 31.4398 16.5779 31.4398C18.0278 31.4458 19.4711 31.2438 20.8636 30.8398V30.7255C20.8636 27.8839 21.9925 25.1587 24.0018 23.1494C26.0111 21.1401 28.7363 20.0112 31.5779 20.0112H31.6922C32.0962 18.6187 32.2982 17.1754 32.2922 15.7255C32.2896 11.5586 30.6331 7.56319 27.6867 4.61676C24.7403 1.67034 20.7448 0.0138796 16.5779 0.0112305ZM16.5779 14.2969C17.5877 14.295 18.5655 14.6505 19.3383 15.3005C20.111 15.9505 20.6288 16.853 20.7999 17.8481C20.971 18.8433 20.7844 19.8669 20.2731 20.7376C19.7619 21.6084 18.9589 22.2701 18.0065 22.6055V23.3441C18.0065 23.723 17.856 24.0863 17.5881 24.3542C17.3202 24.6221 16.9568 24.7727 16.5779 24.7727C16.199 24.7727 15.8357 24.6221 15.5678 24.3542C15.2999 24.0863 15.1494 23.723 15.1494 23.3441V22.6055C14.3166 22.3111 13.5952 21.7666 13.0838 21.0465C12.5723 20.3264 12.2959 19.4659 12.2922 18.5827C12.2922 18.2038 12.4427 17.8404 12.7106 17.5725C12.9785 17.3046 13.3419 17.1541 13.7208 17.1541C14.0997 17.1541 14.463 17.3046 14.7309 17.5725C14.9988 17.8404 15.1494 18.2038 15.1494 18.5827C15.1494 18.8652 15.2331 19.1414 15.3901 19.3763C15.5471 19.6113 15.7702 19.7944 16.0312 19.9025C16.2923 20.0106 16.5795 20.0389 16.8566 19.9838C17.1337 19.9287 17.3883 19.7926 17.5881 19.5928C17.7879 19.393 17.9239 19.1385 17.9791 18.8614C18.0342 18.5842 18.0059 18.297 17.8978 18.036C17.7896 17.7749 17.6065 17.5518 17.3716 17.3948C17.1367 17.2379 16.8605 17.1541 16.5779 17.1541C15.5682 17.156 14.5903 16.8005 13.8176 16.1505C13.0448 15.5005 12.5271 14.5981 12.356 13.6029C12.1848 12.6078 12.3715 11.5842 12.8827 10.7134C13.394 9.84267 14.197 9.18097 15.1494 8.84552V8.10694C15.1494 7.72806 15.2999 7.3647 15.5678 7.09679C15.8357 6.82888 16.199 6.67837 16.5779 6.67837C16.9568 6.67837 17.3202 6.82888 17.5881 7.09679C17.856 7.3647 18.0065 7.72806 18.0065 8.10694V8.84552C18.8392 9.13992 19.5607 9.68442 20.0721 10.4045C20.5835 11.1246 20.86 11.9851 20.8636 12.8684C20.8636 13.2473 20.7131 13.6106 20.4452 13.8785C20.1773 14.1464 19.814 14.2969 19.4351 14.2969C19.0562 14.2969 18.6928 14.1464 18.4249 13.8785C18.157 13.6106 18.0065 13.2473 18.0065 12.8684C18.0065 12.5858 17.9227 12.3096 17.7657 12.0747C17.6088 11.8398 17.3857 11.6567 17.1246 11.5485C16.8636 11.4404 16.5763 11.4121 16.2992 11.4672C16.0221 11.5224 15.7676 11.6584 15.5678 11.8582C15.368 12.058 15.2319 12.3126 15.1768 12.5897C15.1217 12.8668 15.15 13.154 15.2581 13.4151C15.3662 13.6761 15.5493 13.8992 15.7843 14.0562C16.0192 14.2132 16.2954 14.2969 16.5779 14.2969Z" fill="#EAEAEA"/>
<path d="M31.578 21.4399C29.7414 21.4399 27.9461 21.9845 26.4191 23.0049C24.8921 24.0252 23.7019 25.4754 22.9991 27.1722C22.2963 28.8689 22.1124 30.736 22.4707 32.5372C22.829 34.3385 23.7133 35.993 25.012 37.2916C26.3106 38.5903 27.9651 39.4747 29.7664 39.8329C31.5677 40.1912 33.4347 40.0073 35.1314 39.3045C36.8282 38.6017 38.2784 37.4115 39.2987 35.8845C40.3191 34.3575 40.8637 32.5622 40.8637 30.7257C40.8606 28.2639 39.8814 25.9038 38.1406 24.163C36.3998 22.4223 34.0398 21.443 31.578 21.4399ZM35.4451 29.8314L31.6351 33.6414C31.3672 33.9092 31.0039 34.0596 30.6251 34.0596C30.2463 34.0596 29.883 33.9092 29.6151 33.6414L27.7108 31.7357C27.4506 31.4662 27.3066 31.1054 27.3098 30.7308C27.3131 30.3562 27.4633 29.9979 27.7282 29.7331C27.9931 29.4682 28.3514 29.3179 28.726 29.3147C29.1005 29.3114 29.4614 29.4554 29.7308 29.7157L30.6251 30.6099L33.4251 27.8099C33.5578 27.6773 33.7154 27.5721 33.8888 27.5004C34.0621 27.4286 34.248 27.3917 34.4356 27.3918C34.6232 27.3919 34.809 27.4289 34.9824 27.5008C35.1557 27.5726 35.3132 27.6779 35.4458 27.8107C35.5784 27.9434 35.6836 28.1009 35.7554 28.2743C35.8271 28.4477 35.864 28.6335 35.864 28.8212C35.8639 29.0088 35.8269 29.1946 35.755 29.3679C35.6831 29.5413 35.5778 29.6987 35.4451 29.8314Z" fill="#EAEAEA"/>
</svg>
