<svg width="40" height="54" viewBox="0 0 40 54" fill="none" xmlns="http://www.w3.org/2000/svg">
<path d="M13.8822 37.6524C12.9502 37.1373 11.9594 36.7449 10.9783 36.3378C10.4093 36.1023 9.86487 35.8276 9.38417 35.445C8.43747 34.6896 8.61896 33.4634 9.72753 32.9778C10.0415 32.8404 10.3701 32.7963 10.7037 32.7766C11.9888 32.708 13.2102 32.9434 14.3727 33.5026C14.9515 33.7822 15.1428 33.6939 15.339 33.0906C15.545 32.4529 15.7167 31.8054 15.908 31.1629C16.0355 30.7312 15.8786 30.4467 15.4714 30.2652C14.7259 29.9366 13.9607 29.7011 13.1562 29.5736C12.1065 29.4117 12.1065 29.4068 12.1016 28.3522C12.0967 26.8659 12.0967 26.8659 10.6055 26.8659C10.3897 26.8659 10.1739 26.861 9.95807 26.8659C9.26154 26.8856 9.14381 27.0082 9.12419 27.7096C9.11438 28.0236 9.12419 28.3375 9.11929 28.6563C9.11438 29.5883 9.10948 29.5736 8.21674 29.8973C6.05848 30.6821 4.72428 32.1537 4.58203 34.5082C4.4545 36.5928 5.54344 38.0006 7.25534 39.0258C8.30994 39.6586 9.47736 40.0313 10.5957 40.5268C11.0323 40.7181 11.4492 40.9388 11.8122 41.2429C12.8864 42.1308 12.6902 43.6072 11.4149 44.1664C10.7331 44.4656 10.012 44.5392 9.27135 44.446C8.12845 44.3037 7.0346 44.0045 6.00452 43.4699C5.40119 43.1559 5.22461 43.2393 5.01859 43.8917C4.84201 44.4558 4.68504 45.0248 4.52808 45.5938C4.31716 46.359 4.39564 46.5405 5.1265 46.8985C6.05848 47.3498 7.05422 47.5804 8.06959 47.7422C8.86422 47.8698 8.88875 47.9041 8.89856 48.7282C8.90346 49.101 8.90346 49.4787 8.90837 49.8514C8.91327 50.3223 9.13891 50.597 9.62452 50.6068C10.1739 50.6166 10.7282 50.6166 11.2776 50.6019C11.7288 50.5921 11.9594 50.3469 11.9594 49.8907C11.9594 49.3805 11.9839 48.8655 11.9643 48.3554C11.9397 47.8354 12.1654 47.5706 12.6657 47.4332C13.8184 47.1193 14.7994 46.5012 15.5548 45.5791C17.6542 43.0284 16.8547 39.2956 13.8822 37.6524Z" fill="#EAEAEA"/>
<path d="M29.8636 11.0637C29.1636 10.6637 28.2636 10.6637 27.4636 11.0637L21.8636 14.3637L18.0636 16.4637L12.5636 19.7637C11.8636 20.1637 10.9636 20.1637 10.1636 19.7637L5.86365 17.1637C5.16365 16.7637 4.66365 15.9637 4.66365 15.0637V10.0637C4.66365 9.26367 5.06365 8.46367 5.86365 7.96367L10.1636 5.46367C10.8636 5.06367 11.7636 5.06367 12.5636 5.46367L16.8636 8.06367C17.5636 8.46367 18.0636 9.26367 18.0636 10.1637V13.4637L21.8636 11.2637V7.86367C21.8636 7.06367 21.4636 6.26367 20.6636 5.76367L12.6636 1.06367C11.9636 0.663672 11.0636 0.663672 10.2636 1.06367L2.06365 5.86367C1.26365 6.26367 0.863647 7.06367 0.863647 7.86367V17.2637C0.863647 18.0637 1.26365 18.8637 2.06365 19.3637L10.1636 24.0637C10.8636 24.4637 11.7636 24.4637 12.5636 24.0637L18.0636 20.8637L21.8636 18.6637L27.3636 15.4637C28.0636 15.0637 28.9636 15.0637 29.7636 15.4637L34.0636 17.9637C34.7636 18.3637 35.2636 19.1637 35.2636 20.0637V25.0637C35.2636 25.8637 34.8636 26.6637 34.0636 27.1637L29.8636 29.6637C29.1636 30.0637 28.2636 30.0637 27.4636 29.6637L23.1636 27.1637C22.4636 26.7637 21.9636 25.9637 21.9636 25.0637V21.8637L18.1636 24.0637V27.3637C18.1636 28.1637 18.5636 28.9637 19.3636 29.4637L27.4636 34.1637C28.1636 34.5637 29.0636 34.5637 29.8636 34.1637L37.9636 29.4637C38.6636 29.0637 39.1636 28.2637 39.1636 27.3637V17.8637C39.1636 17.0637 38.7636 16.2637 37.9636 15.7637L29.8636 11.0637Z" fill="#EAEAEA"/>
<line x1="1.8314" y1="26.1756" x2="20.8313" y2="52.8942" stroke="#B6B6B6" stroke-width="2.37499"/>
</svg>
