<svg width="36" height="48" viewBox="0 0 36 48" fill="none" xmlns="http://www.w3.org/2000/svg">
<path d="M22.1192 20.6249C20.5496 19.7575 18.8808 19.0966 17.2285 18.4109C16.2702 18.0143 15.3532 17.5517 14.5436 16.9073C12.9492 15.6351 13.2549 13.5697 15.1219 12.7519C15.6506 12.5206 16.2041 12.4462 16.7659 12.4132C18.9304 12.2975 20.9874 12.694 22.9454 13.6358C23.9202 14.1067 24.2424 13.958 24.5729 12.9419C24.9198 11.8679 25.209 10.7774 25.5312 9.69518C25.746 8.96818 25.4816 8.48903 24.7959 8.18336C23.5402 7.62985 22.2514 7.23331 20.8966 7.01851C19.1287 6.74589 19.1287 6.73763 19.1204 4.96144C19.1121 2.45826 19.1121 2.45826 16.6007 2.45826C16.2372 2.45826 15.8737 2.45 15.5102 2.45826C14.3371 2.49131 14.1388 2.69784 14.1058 3.87921C14.0892 4.40793 14.1058 4.93666 14.0975 5.47364C14.0892 7.0433 14.081 7.01851 12.5774 7.56376C8.94244 8.88557 6.69536 11.364 6.45578 15.3294C6.24099 18.8405 8.075 21.2115 10.9582 22.9381C12.7344 24.0038 14.7006 24.6317 16.5842 25.466C17.3194 25.7882 18.0216 26.16 18.633 26.6722C20.4422 28.1675 20.1117 30.6542 17.9638 31.5959C16.8155 32.0999 15.6011 32.2238 14.3536 32.0668C12.4287 31.8273 10.5864 31.3233 8.85157 30.4228C7.83542 29.8941 7.53802 30.0346 7.19104 31.1333C6.89363 32.0834 6.62927 33.0417 6.36491 34C6.00967 35.2888 6.14185 35.5944 7.37279 36.1975C8.94244 36.9575 10.6195 37.3458 12.3296 37.6184C13.6679 37.8332 13.7092 37.8911 13.7257 39.279C13.734 39.9068 13.734 40.543 13.7423 41.1708C13.7505 41.9639 14.1306 42.4265 14.9484 42.4431C15.8737 42.4596 16.8072 42.4596 17.7325 42.4348C18.4925 42.4183 18.8808 42.0052 18.8808 41.2369C18.8808 40.3777 18.9221 39.5103 18.8891 38.6511C18.8478 37.7754 19.2278 37.3293 20.0704 37.098C22.0119 36.5693 23.6641 35.5283 24.9364 33.9752C28.4722 29.6793 27.1256 23.3925 22.1192 20.6249Z" fill="#EAEAEA"/>
<line x1="1.82315" y1="1.29554" x2="33.8232" y2="46.2955" stroke="#B6B6B6" stroke-width="4"/>
</svg>
