<svg width="38" height="38" viewBox="0 0 38 38" fill="none" xmlns="http://www.w3.org/2000/svg">
<path d="M21.4173 18.2206C21.5829 17.6052 21.6668 16.9706 21.6667 16.3333C21.6649 15.1691 21.3869 14.0221 20.8557 12.9862C20.3244 11.9504 19.555 11.0553 18.6107 10.3746C18.4671 10.2714 18.3704 10.1153 18.3419 9.94076C18.3134 9.76622 18.3554 9.58751 18.4587 9.44394C18.5619 9.30037 18.718 9.2037 18.8925 9.1752C19.0671 9.14669 19.2458 9.18868 19.3893 9.29194C20.5052 10.0964 21.4142 11.1541 22.0419 12.3782C22.6696 13.6022 22.9979 14.9577 23 16.3333C22.9987 16.6841 22.9764 17.0345 22.9333 17.3826C23.7979 16.9822 24.7099 16.6937 25.6473 16.5239V10.2666C25.6461 10.1825 25.6232 10.1002 25.5808 10.0275C25.5384 9.95486 25.478 9.89439 25.4053 9.85194L14.5633 3.50194C14.4926 3.45776 14.4111 3.43395 14.3277 3.43313C14.2443 3.4323 14.1623 3.4545 14.0907 3.49728L3.23667 9.85528C3.1645 9.89694 3.10462 9.95691 3.06306 10.0291C3.02151 10.1014 2.99975 10.1833 3 10.2666V23.0666C2.99975 23.1499 3.02151 23.2319 3.06306 23.3041C3.10462 23.3763 3.1645 23.4363 3.23667 23.4779L14.0833 29.8313C14.155 29.8757 14.2377 29.8993 14.322 29.8993C14.4063 29.8993 14.489 29.8757 14.5607 29.8313L16.3887 28.7646C16.3528 28.3997 16.3343 28.0333 16.3333 27.6666C16.3362 26.6451 16.478 25.6286 16.7547 24.6453C16.052 24.8498 15.3262 24.9641 14.5947 24.9853L14.8047 25.1953C14.8683 25.2568 14.9191 25.3303 14.9541 25.4117C14.989 25.493 15.0074 25.5805 15.0082 25.669C15.0089 25.7575 14.9921 25.8453 14.9586 25.9272C14.925 26.0092 14.8755 26.0836 14.8129 26.1462C14.7503 26.2088 14.6759 26.2583 14.594 26.2918C14.512 26.3253 14.4243 26.3422 14.3357 26.3414C14.2472 26.3407 14.1597 26.3223 14.0784 26.2873C13.9971 26.2524 13.9235 26.2016 13.862 26.1379L12.5287 24.8046C12.4037 24.6796 12.3335 24.5101 12.3335 24.3333C12.3335 24.1565 12.4037 23.987 12.5287 23.8619L13.862 22.5286C13.9877 22.4072 14.1561 22.34 14.3309 22.3415C14.5057 22.343 14.6729 22.4131 14.7965 22.5367C14.9202 22.6603 14.9903 22.8275 14.9918 23.0023C14.9933 23.1771 14.9261 23.3455 14.8047 23.4713L14.6253 23.6506C15.5632 23.6166 16.4857 23.4015 17.342 23.0173C18.2236 21.0677 19.6358 19.4055 21.4173 18.2206ZM16.138 8.80461L14.8047 10.1379C14.6789 10.2594 14.5105 10.3266 14.3357 10.3251C14.1609 10.3235 13.9937 10.2534 13.8701 10.1298C13.7465 10.0062 13.6764 9.83901 13.6749 9.66421C13.6734 9.48941 13.7406 9.32101 13.862 9.19528L14.0427 9.01461C12.5169 9.07399 11.0478 9.60851 9.84056 10.5435C8.63336 11.4785 7.74836 12.7672 7.30923 14.2296C6.8701 15.692 6.89876 17.2551 7.39122 18.7004C7.88368 20.1458 8.81532 21.4012 10.056 22.2913C10.1955 22.396 10.2884 22.5513 10.3147 22.7238C10.341 22.8963 10.2987 23.0722 10.1968 23.2138C10.0949 23.3554 9.94153 23.4514 9.76963 23.4812C9.59772 23.511 9.42098 23.4723 9.27734 23.3733C7.80601 22.317 6.70286 20.826 6.12306 19.11C5.54326 17.3941 5.51599 15.5396 6.04508 13.8073C6.57417 12.0751 7.633 10.5523 9.07263 9.45317C10.5123 8.35404 12.2602 7.73389 14.0707 7.67994L13.862 7.47128C13.7406 7.34554 13.6734 7.17714 13.6749 7.00234C13.6764 6.82754 13.7465 6.66034 13.8701 6.53673C13.9937 6.41312 14.1609 6.34301 14.3357 6.34149C14.5105 6.33997 14.6789 6.40717 14.8047 6.52861L16.138 7.86194C16.263 7.98696 16.3332 8.1565 16.3332 8.33328C16.3332 8.51005 16.263 8.67959 16.138 8.80461ZM25.6667 24.9999C25.6684 25.4121 25.7974 25.8137 26.0361 26.1497C26.2747 26.4858 26.6114 26.7399 27 26.8773V23.1226C26.6114 23.26 26.2747 23.5141 26.0361 23.8501C25.7974 24.1862 25.6684 24.5878 25.6667 24.9999Z" fill="#EAEAEA"/>
<path d="M15.2367 30.9825C14.9596 31.1467 14.6435 31.2333 14.3214 31.2332C13.9976 31.2336 13.6799 31.1453 13.4027 30.9779L2.56338 24.6285C2.29103 24.4686 2.06509 24.2404 1.90785 23.9665C1.7506 23.6925 1.66749 23.3824 1.66671 23.0665V10.2665C1.66749 9.95068 1.7506 9.6405 1.90785 9.36658C2.06509 9.09266 2.29103 8.86447 2.56338 8.70452L13.41 2.35052C13.6865 2.18525 14.0026 2.09798 14.3247 2.09798C14.6468 2.09798 14.9629 2.18525 15.2394 2.35052L26.0834 8.70252C26.3552 8.86359 26.5806 9.09231 26.7378 9.3664C26.8949 9.64048 26.9784 9.95059 26.98 10.2665V16.3679C27.2087 16.3539 27.4347 16.3332 27.6667 16.3332C27.8987 16.3332 28.1114 16.3539 28.3334 16.3672V8.74052C28.3319 8.65556 28.309 8.57236 28.2667 8.49867C28.2243 8.42499 28.164 8.36324 28.0914 8.31919L14.56 0.399855C14.4922 0.358995 14.4146 0.337402 14.3354 0.337402C14.2562 0.337402 14.1785 0.358995 14.1107 0.399855L0.57071 8.32252C0.49817 8.36549 0.438113 8.42666 0.396485 8.49998C0.354857 8.57329 0.333103 8.65621 0.333377 8.74052V24.5925C0.333103 24.6768 0.354857 24.7598 0.396485 24.8331C0.438113 24.9064 0.49817 24.9676 0.57071 25.0105L14.1067 32.9332C14.1747 32.9734 14.2523 32.9947 14.3314 32.9947C14.4104 32.9947 14.488 32.9734 14.556 32.9332L17.014 31.4912C16.8559 31.0582 16.725 30.6158 16.622 30.1665L15.2367 30.9825ZM28.3334 32.2105C28.7231 32.0748 29.0609 31.8211 29.2999 31.4847C29.5389 31.1483 29.6673 30.7459 29.6673 30.3332C29.6673 29.9205 29.5389 29.5181 29.2999 29.1817C29.0609 28.8453 28.7231 28.5916 28.3334 28.4559V32.2105Z" fill="#EAEAEA"/>
<path d="M27.6668 17.6665C25.6889 17.6665 23.7555 18.253 22.1111 19.3518C20.4666 20.4506 19.1848 22.0124 18.428 23.8397C17.6711 25.6669 17.473 27.6776 17.8589 29.6174C18.2448 31.5572 19.1972 33.339 20.5957 34.7376C21.9942 36.1361 23.776 37.0885 25.7158 37.4744C27.6557 37.8602 29.6663 37.6622 31.4936 36.9053C33.3208 36.1484 34.8826 34.8667 35.9814 33.2222C37.0803 31.5777 37.6668 29.6443 37.6668 27.6665C37.6638 25.0153 36.6092 22.4735 34.7345 20.5988C32.8598 18.724 30.318 17.6695 27.6668 17.6665ZM31.0001 30.3332C30.9991 31.1013 30.7334 31.8456 30.2476 32.4407C29.7619 33.0357 29.0858 33.4451 28.3334 33.5998V34.3332C28.3334 34.51 28.2632 34.6796 28.1382 34.8046C28.0131 34.9296 27.8436 34.9998 27.6668 34.9998C27.4899 34.9998 27.3204 34.9296 27.1953 34.8046C27.0703 34.6796 27.0001 34.51 27.0001 34.3332V33.5998C26.2477 33.4451 25.5717 33.0357 25.0859 32.4407C24.6001 31.8456 24.3344 31.1013 24.3334 30.3332C24.3334 30.1564 24.4037 29.9868 24.5287 29.8618C24.6537 29.7367 24.8233 29.6665 25.0001 29.6665C25.1769 29.6665 25.3465 29.7367 25.4715 29.8618C25.5965 29.9868 25.6668 30.1564 25.6668 30.3332C25.6685 30.7453 25.7975 31.1469 26.0361 31.483C26.2748 31.819 26.6115 32.0731 27.0001 32.2105V28.2665C26.2466 28.1135 25.5691 27.7047 25.0825 27.1093C24.5959 26.514 24.3301 25.7687 24.3301 24.9998C24.3301 24.2309 24.5959 23.4857 25.0825 22.8903C25.5691 22.295 26.2466 21.8862 27.0001 21.7332V20.9998C27.0001 20.823 27.0703 20.6535 27.1953 20.5284C27.3204 20.4034 27.4899 20.3332 27.6668 20.3332C27.8436 20.3332 28.0131 20.4034 28.1382 20.5284C28.2632 20.6535 28.3334 20.823 28.3334 20.9998V21.7332C29.0858 21.8879 29.7619 22.2973 30.2476 22.8923C30.7334 23.4874 30.9991 24.2317 31.0001 24.9998C31.0001 25.1766 30.9298 25.3462 30.8048 25.4712C30.6798 25.5963 30.5102 25.6665 30.3334 25.6665C30.1566 25.6665 29.987 25.5963 29.862 25.4712C29.737 25.3462 29.6668 25.1766 29.6668 24.9998C29.665 24.5877 29.536 24.1861 29.2974 23.85C29.0587 23.514 28.722 23.2599 28.3334 23.1225V27.0665C29.0858 27.2212 29.7619 27.6306 30.2476 28.2257C30.7334 28.8207 30.9991 29.565 31.0001 30.3332Z" fill="#EAEAEA"/>
</svg>
