<svg width="37" height="41" viewBox="0 0 37 41" fill="none" xmlns="http://www.w3.org/2000/svg">
<path fill-rule="evenodd" clip-rule="evenodd" d="M18.5853 0.125L36.4887 6.93239V16.3982C36.4887 24.7042 33.2661 30.7452 29.4566 34.7005C27.7676 36.4679 25.8098 37.949 23.6579 39.0875C21.8417 40.0315 20.0255 40.6023 18.5853 40.6023C17.1451 40.6023 15.3289 40.0315 13.5127 39.0895C11.3607 37.9503 9.40293 36.4685 7.71395 34.7005C3.90251 30.7452 0.681885 24.7042 0.681885 16.3982V6.93239L18.5853 0.125ZM25.9595 17.8242C26.3219 17.4438 26.5224 16.9343 26.5178 16.4055C26.5133 15.8766 26.3041 15.3707 25.9353 14.9967C25.5665 14.6228 25.0675 14.4107 24.5459 14.4061C24.0244 14.4015 23.5219 14.6048 23.1467 14.9722L16.596 21.6142L14.0239 19.0062C13.6487 18.6388 13.1462 18.4355 12.6247 18.4401C12.1031 18.4447 11.6041 18.6568 11.2353 19.0308C10.8665 19.4047 10.6573 19.9106 10.6527 20.4395C10.6482 20.9683 10.8487 21.4778 11.2111 21.8582L15.1896 25.8922C15.5627 26.2704 16.0685 26.4828 16.596 26.4828C17.1235 26.4828 17.6294 26.2704 18.0024 25.8922L25.9595 17.8242Z" fill="#ECF1F0"/>
</svg>
