<svg width="39" height="35" viewBox="0 0 39 35" fill="none" xmlns="http://www.w3.org/2000/svg">
<path fill-rule="evenodd" clip-rule="evenodd" d="M0.863647 3.30664C0.863647 2.51099 1.17972 1.74793 1.74233 1.18532C2.30494 0.622711 3.068 0.306641 3.86365 0.306641H33.8636C34.6593 0.306641 35.4224 0.622711 35.985 1.18532C36.5476 1.74793 36.8636 2.51099 36.8636 3.30664V7.30664C36.8636 8.10229 36.5476 8.86535 35.985 9.42796C35.4224 9.99057 34.6593 10.3066 33.8636 10.3066H3.86365C3.068 10.3066 2.30494 9.99057 1.74233 9.42796C1.17972 8.86535 0.863647 8.10229 0.863647 7.30664V3.30664ZM7.86365 5.30664C7.86365 5.83707 7.65293 6.34578 7.27786 6.72085C6.90279 7.09593 6.39408 7.30664 5.86365 7.30664C5.33321 7.30664 4.82451 7.09593 4.44943 6.72085C4.07436 6.34578 3.86365 5.83707 3.86365 5.30664C3.86365 4.77621 4.07436 4.2675 4.44943 3.89243C4.82451 3.51735 5.33321 3.30664 5.86365 3.30664C6.39408 3.30664 6.90279 3.51735 7.27786 3.89243C7.65293 4.2675 7.86365 4.77621 7.86365 5.30664ZM0.863647 15.3066C0.863647 14.511 1.17972 13.7479 1.74233 13.1853C2.30494 12.6227 3.068 12.3066 3.86365 12.3066H16.0096C16.5209 12.3067 17.0236 12.4373 17.4701 12.6862C17.9166 12.9351 18.2922 13.2939 18.561 13.7287C18.8299 14.1635 18.9832 14.6598 19.0065 15.1704C19.0297 15.6811 18.922 16.1893 18.6936 16.6466L16.6936 20.6466C16.4447 21.1454 16.0616 21.5649 15.5876 21.8581C15.1135 22.1513 14.5671 22.3066 14.0096 22.3066H3.86365C3.068 22.3066 2.30494 21.9906 1.74233 21.428C1.17972 20.8654 0.863647 20.1023 0.863647 19.3066V15.3066ZM7.86365 17.3066C7.86365 17.8371 7.65293 18.3458 7.27786 18.7209C6.90279 19.0959 6.39408 19.3066 5.86365 19.3066C5.33321 19.3066 4.82451 19.0959 4.44943 18.7209C4.07436 18.3458 3.86365 17.8371 3.86365 17.3066C3.86365 16.7762 4.07436 16.2675 4.44943 15.8924C4.82451 15.5174 5.33321 15.3066 5.86365 15.3066C6.39408 15.3066 6.90279 15.5174 7.27786 15.8924C7.65293 16.2675 7.86365 16.7762 7.86365 17.3066ZM0.863647 27.3066C0.863647 26.511 1.17972 25.7479 1.74233 25.1853C2.30494 24.6227 3.068 24.3066 3.86365 24.3066H14.4036C15.0973 24.3066 15.7695 24.5469 16.3059 24.9867C16.8423 25.4264 17.2097 26.0385 17.3456 26.7186L18.1456 30.7186C18.2326 31.1537 18.222 31.6026 18.1145 32.0331C18.0071 32.4636 17.8055 32.8649 17.5243 33.208C17.2431 33.5512 16.8893 33.8278 16.4884 34.0177C16.0874 34.2077 15.6493 34.3064 15.2056 34.3066H3.86365C3.068 34.3066 2.30494 33.9906 1.74233 33.428C1.17972 32.8653 0.863647 32.1023 0.863647 31.3066V27.3066ZM7.86365 29.3066C7.86365 29.8371 7.65293 30.3458 7.27786 30.7209C6.90279 31.0959 6.39408 31.3066 5.86365 31.3066C5.33321 31.3066 4.82451 31.0959 4.44943 30.7209C4.07436 30.3458 3.86365 29.8371 3.86365 29.3066C3.86365 28.7762 4.07436 28.2675 4.44943 27.8924C4.82451 27.5174 5.33321 27.3066 5.86365 27.3066C6.39408 27.3066 6.90279 27.5174 7.27786 27.8924C7.65293 28.2675 7.86365 28.7762 7.86365 29.3066ZM23.1816 22.4246L21.8176 21.5666C21.5937 21.4328 21.3985 21.2559 21.2433 21.0461C21.0881 20.8364 20.9761 20.598 20.9136 20.3446C20.8542 20.0921 20.8473 19.8301 20.8934 19.5748C20.9395 19.3195 21.0376 19.0764 21.1816 18.8606C21.3268 18.6405 21.5147 18.4518 21.7343 18.3058C21.9538 18.1597 22.2005 18.0594 22.4596 18.0106C22.9848 17.9086 23.529 18.0163 23.9756 18.3106L25.3396 19.1646C26.0776 18.5446 26.9396 18.0846 27.8736 17.8126V16.2466C27.8736 15.7306 28.0816 15.2386 28.4556 14.8746C28.8296 14.5106 29.3356 14.3066 29.8636 14.3066C30.3916 14.3066 30.8976 14.5106 31.2716 14.8746C31.4555 15.0528 31.6017 15.266 31.7017 15.5017C31.8016 15.7373 31.8533 15.9907 31.8536 16.2466V17.8126C32.7976 18.0886 33.6596 18.5526 34.3876 19.1646L35.7516 18.3066C36.1973 18.0531 36.7222 17.9767 37.2216 18.0926C37.7216 18.2086 38.1556 18.5086 38.4336 18.9306C38.7136 19.3506 38.8136 19.8606 38.7156 20.3506C38.6154 20.8454 38.3263 21.2816 37.9096 21.5666L36.5456 22.4246C36.9115 23.6526 36.9115 24.9606 36.5456 26.1886L37.9096 27.0486C38.1336 27.1825 38.3288 27.3594 38.484 27.5691C38.6392 27.7789 38.7512 28.0173 38.8136 28.2706C38.8731 28.5232 38.88 28.7852 38.8339 29.0405C38.7878 29.2958 38.6897 29.5389 38.5456 29.7546C38.4006 29.9749 38.2127 30.1636 37.9931 30.3097C37.7736 30.4557 37.5268 30.556 37.2676 30.6046C36.7425 30.7073 36.1981 30.5996 35.7516 30.3046L34.3876 29.4486C33.6496 30.0686 32.7876 30.5286 31.8536 30.8006V32.3666C31.8536 32.8826 31.6436 33.3746 31.2716 33.7386C30.8996 34.1026 30.3916 34.3066 29.8636 34.3066C29.3356 34.3066 28.8296 34.1026 28.4556 33.7386C28.0816 33.3746 27.8736 32.8826 27.8736 32.3666V30.8006C26.9447 30.5298 26.0819 30.0695 25.3396 29.4486L23.9756 30.3066C23.5285 30.585 22.991 30.6796 22.4756 30.5706C21.9636 30.4649 21.5134 30.1626 21.2216 29.7286C20.9376 29.2946 20.8396 28.7686 20.9516 28.2686C21.0636 27.7686 21.3756 27.3266 21.8196 27.0486L23.1796 26.1886C22.8138 24.9606 22.8138 23.6526 23.1796 22.4246H23.1816ZM29.8636 21.4106C28.2236 21.4106 26.8896 22.7106 26.8896 24.3086C26.8896 25.9066 28.2236 27.2046 29.8636 27.2046C31.5036 27.2046 32.8376 25.9046 32.8376 24.3086C32.8376 22.7126 31.5036 21.4086 29.8636 21.4086V21.4106Z" fill="#EAEAEA"/>
</svg>
