<svg width="21" height="40" viewBox="0 0 21 40" fill="none" xmlns="http://www.w3.org/2000/svg">
<path d="M15.926 18.1703C14.3564 17.3029 12.6876 16.642 11.0353 15.9563C10.077 15.5597 9.15999 15.0971 8.35038 14.4527C6.75595 13.1805 7.06161 11.1151 8.92867 10.2973C9.4574 10.066 10.0109 9.99161 10.5727 9.95856C12.7371 9.84291 14.7942 10.2394 16.7521 11.1812C17.727 11.6521 18.0492 11.5034 18.3796 10.4873C18.7266 9.41332 19.0157 8.32282 19.3379 7.24059C19.5527 6.51359 19.2884 6.03444 18.6027 5.72877C17.347 5.17526 16.0582 4.77872 14.7033 4.56392C12.9354 4.2913 12.9354 4.28304 12.9272 2.50685C12.9189 0.00367175 12.9189 0.0036717 10.4074 0.0036717C10.044 0.0036717 9.68045 -0.00458962 9.31695 0.0036717C8.14385 0.036717 7.94558 0.24325 7.91253 1.42462C7.89601 1.95334 7.91253 2.48207 7.90427 3.01905C7.89601 4.58871 7.88775 4.56392 6.38419 5.10917C2.7492 6.43098 0.502124 8.90938 0.262546 12.8748C0.0477517 16.3859 1.88177 18.7569 4.76497 20.4835C6.54115 21.5492 8.50735 22.1771 10.3909 23.0115C11.1262 23.3336 11.8284 23.7054 12.4397 24.2176C14.249 25.7129 13.9185 28.1996 11.7706 29.1414C10.6222 29.6453 9.40783 29.7692 8.16037 29.6122C6.23548 29.3727 4.39321 28.8687 2.65833 27.9682C1.64219 27.4395 1.34478 27.58 0.997803 28.6787C0.700396 29.6288 0.436034 30.5871 0.171672 31.5454C-0.183565 32.8342 -0.0513849 33.1398 1.17955 33.7429C2.7492 34.503 4.42625 34.8912 6.13635 35.1639C7.47468 35.3787 7.51599 35.4365 7.53251 36.8244C7.54077 37.4522 7.54077 38.0884 7.54903 38.7162C7.55729 39.5093 7.93731 39.9719 8.75519 39.9885C9.68045 40.005 10.614 40.005 11.5392 39.9802C12.2993 39.9637 12.6876 39.5506 12.6876 38.7823C12.6876 37.9231 12.7289 37.0557 12.6958 36.1965C12.6545 35.3208 13.0345 34.8747 13.8772 34.6434C15.8186 34.1147 17.4709 33.0737 18.7431 31.5206C22.279 27.2247 20.9324 20.9379 15.926 18.1703Z" fill="#EAEAEA"/>
</svg>
