<svg width="36" height="36" viewBox="0 0 36 36" fill="none" xmlns="http://www.w3.org/2000/svg">
<path d="M29.6136 7.65918C31.6847 7.65918 33.3636 5.98025 33.3636 3.90918C33.3636 1.83811 31.6847 0.15918 29.6136 0.15918C27.5426 0.15918 25.8636 1.83811 25.8636 3.90918C25.8636 5.98025 27.5426 7.65918 29.6136 7.65918Z" fill="#EAEAEA"/>
<path d="M13.2749 10.1592C13.2749 9.33168 13.2474 8.55293 13.1999 7.82168C11.6436 7.72103 10.0824 7.72103 8.52615 7.82168C8.42544 9.37839 8.42544 10.94 8.52615 12.4967C10.0829 12.5974 11.6444 12.5974 13.2011 12.4967C13.2474 11.7654 13.2749 10.9867 13.2749 10.1592ZM10.8636 6.49793C11.6099 6.49793 12.3561 6.52293 13.0924 6.56668C12.6511 2.39918 11.5136 0.15918 10.8636 0.15918C10.2136 0.15918 9.0749 2.39918 8.6349 6.56668C9.37695 6.52133 10.1202 6.49841 10.8636 6.49793ZM8.6349 13.7517C8.80365 15.3429 9.0724 16.6479 9.37865 17.6592H12.3486C12.6536 16.6467 12.9236 15.3429 13.0924 13.7517C11.6079 13.8414 10.1194 13.8414 8.6349 13.7517ZM7.27115 12.3879C7.18139 10.9035 7.18139 9.41491 7.27115 7.93043C3.10365 8.37168 0.863647 9.50918 0.863647 10.1592C0.863647 10.8092 3.10365 11.9479 7.27115 12.3879ZM20.6799 8.27668C20.3 6.3136 19.3415 4.50907 17.9276 3.09521C16.5138 1.68135 14.7092 0.722823 12.7461 0.34293C13.5624 1.75668 14.1011 4.08043 14.3549 6.66793C16.9424 6.92168 19.2661 7.46043 20.6799 8.27668ZM1.0474 12.0417C1.47365 14.2717 2.6599 16.2204 4.3049 17.6592H8.07615C7.7524 16.4829 7.5149 15.1117 7.37115 13.6504C4.78365 13.3967 2.4599 12.8579 1.04615 12.0417H1.0474ZM8.98115 0.34293C7.01807 0.722823 5.21354 1.68135 3.79968 3.09521C2.38582 4.50907 1.42729 6.3136 1.0474 8.27668C2.46115 7.46043 4.7849 6.92168 7.3724 6.66793C7.62615 4.08043 8.1649 1.75668 8.98115 0.34293Z" fill="#EAEAEA"/>
<path d="M29.6136 13.909H20.1136C20.3599 13.3128 20.5561 12.6915 20.6799 12.0415C19.2661 12.8578 16.9424 13.3965 14.3549 13.6503C14.2111 15.1128 13.9736 16.4828 13.6499 17.659H17.4224C17.8599 17.2778 18.2599 16.859 18.6249 16.409H28.3636V21.409H23.3636V20.159C23.3636 19.8275 23.232 19.5095 22.9975 19.2751C22.7631 19.0407 22.4452 18.909 22.1136 18.909H2.11365C1.78213 18.909 1.46418 19.0407 1.22976 19.2751C0.995343 19.5095 0.863647 19.8275 0.863647 20.159V26.409H23.3636V23.909H28.3636V30.159H23.3636V27.659H0.863647V33.909C0.863647 34.2405 0.995343 34.5585 1.22976 34.7929C1.46418 35.0273 1.78213 35.159 2.11365 35.159H22.1136C22.4452 35.159 22.7631 35.0273 22.9975 34.7929C23.232 34.5585 23.3636 34.2405 23.3636 33.909V32.659H29.6136C29.9452 32.659 30.2631 32.5273 30.4975 32.2929C30.732 32.0585 30.8636 31.7405 30.8636 31.409V15.159C30.8636 14.8275 30.732 14.5095 30.4975 14.2751C30.2631 14.0407 29.9452 13.909 29.6136 13.909ZM4.61365 23.909C4.28213 23.909 3.96418 23.7773 3.72976 23.5429C3.49534 23.3085 3.36365 22.9905 3.36365 22.659C3.36365 22.3275 3.49534 22.0095 3.72976 21.7751C3.96418 21.5407 4.28213 21.409 4.61365 21.409C4.94517 21.409 5.26311 21.5407 5.49753 21.7751C5.73195 22.0095 5.86365 22.3275 5.86365 22.659C5.86365 22.9905 5.73195 23.3085 5.49753 23.5429C5.26311 23.7773 4.94517 23.909 4.61365 23.909ZM8.36365 23.909C8.03213 23.909 7.71418 23.7773 7.47976 23.5429C7.24534 23.3085 7.11365 22.9905 7.11365 22.659C7.11365 22.3275 7.24534 22.0095 7.47976 21.7751C7.71418 21.5407 8.03213 21.409 8.36365 21.409C8.69517 21.409 9.01311 21.5407 9.24753 21.7751C9.48195 22.0095 9.61365 22.3275 9.61365 22.659C9.61365 22.9905 9.48195 23.3085 9.24753 23.5429C9.01311 23.7773 8.69517 23.909 8.36365 23.909ZM17.1136 23.909H12.1136C11.7821 23.909 11.4642 23.7773 11.2298 23.5429C10.9953 23.3085 10.8636 22.9905 10.8636 22.659C10.8636 22.3275 10.9953 22.0095 11.2298 21.7751C11.4642 21.5407 11.7821 21.409 12.1136 21.409H17.1136C17.4452 21.409 17.7631 21.5407 17.9975 21.7751C18.232 22.0095 18.3636 22.3275 18.3636 22.659C18.3636 22.9905 18.232 23.3085 17.9975 23.5429C17.7631 23.7773 17.4452 23.909 17.1136 23.909ZM4.61365 32.659C4.28213 32.659 3.96418 32.5273 3.72976 32.2929C3.49534 32.0585 3.36365 31.7405 3.36365 31.409C3.36365 31.0775 3.49534 30.7595 3.72976 30.5251C3.96418 30.2907 4.28213 30.159 4.61365 30.159C4.94517 30.159 5.26311 30.2907 5.49753 30.5251C5.73195 30.7595 5.86365 31.0775 5.86365 31.409C5.86365 31.7405 5.73195 32.0585 5.49753 32.2929C5.26311 32.5273 4.94517 32.659 4.61365 32.659ZM8.36365 32.659C8.03213 32.659 7.71418 32.5273 7.47976 32.2929C7.24534 32.0585 7.11365 31.7405 7.11365 31.409C7.11365 31.0775 7.24534 30.7595 7.47976 30.5251C7.71418 30.2907 8.03213 30.159 8.36365 30.159C8.69517 30.159 9.01311 30.2907 9.24753 30.5251C9.48195 30.7595 9.61365 31.0775 9.61365 31.409C9.61365 31.7405 9.48195 32.0585 9.24753 32.2929C9.01311 32.5273 8.69517 32.659 8.36365 32.659ZM17.1136 32.659H12.1136C11.7821 32.659 11.4642 32.5273 11.2298 32.2929C10.9953 32.0585 10.8636 31.7405 10.8636 31.409C10.8636 31.0775 10.9953 30.7595 11.2298 30.5251C11.4642 30.2907 11.7821 30.159 12.1136 30.159H17.1136C17.4452 30.159 17.7631 30.2907 17.9975 30.5251C18.232 30.7595 18.3636 31.0775 18.3636 31.409C18.3636 31.7405 18.232 32.0585 17.9975 32.2929C17.7631 32.5273 17.4452 32.659 17.1136 32.659Z" fill="#EAEAEA"/>
<path d="M33.4137 7.12061C32.4962 8.20436 31.1424 8.90936 29.6137 8.90936C28.0849 8.90936 26.7312 8.20436 25.8137 7.12061C25.0807 7.55776 24.4702 8.17306 24.0387 8.90936H19.0562C17.9799 8.51061 16.4437 8.14061 14.4562 7.93061C14.5459 9.41508 14.5459 10.9036 14.4562 12.3881C16.4437 12.1781 17.9799 11.8081 19.0562 11.4094H23.3637C23.3637 11.7409 23.4954 12.0588 23.7298 12.2932C23.9642 12.5277 24.2822 12.6594 24.6137 12.6594H34.6137C34.9452 12.6594 35.2631 12.5277 35.4976 12.2932C35.732 12.0588 35.8637 11.7409 35.8637 11.4094C35.8623 10.5434 35.6357 9.69269 35.2062 8.94078C34.7767 8.18886 34.1589 7.5616 33.4137 7.12061Z" fill="#EAEAEA"/>
</svg>
