<svg width="18" height="18" viewBox="0 0 18 18" fill="none" xmlns="http://www.w3.org/2000/svg">
<path d="M4.98111 0.292894C5.16864 0.105357 5.423 0 5.68821 0H12.3118C12.577 0 12.8314 0.105357 13.0189 0.292893L17.7071 4.98111C17.8946 5.16864 18 5.423 18 5.68821V12.3118C18 12.577 17.8946 12.8314 17.7071 13.0189L13.0189 17.7071C12.8314 17.8946 12.577 18 12.3118 18H5.68821C5.423 18 5.16864 17.8946 4.98111 17.7071L0.292894 13.0189C0.105357 12.8314 0 12.577 0 12.3118V5.68821C0 5.423 0.105357 5.16864 0.292893 4.98111L4.98111 0.292894Z" fill="#0EBC54"/>
<path d="M13.6666 6.5L7.24992 12.9167L4.33325 10" stroke="white" stroke-width="2" stroke-linecap="round" stroke-linejoin="round"/>
</svg>
