<svg width="447" height="75" viewBox="0 0 75 75" fill="none" xmlns="http://www.w3.org/2000/svg">
<path d="M21.3516 31.0873C20.5653 34.7519 19.8628 38.0321 19.1603 41.3084C18.9964 41.2967 18.8578 41.3201 18.8344 41.2811C15.6479 35.671 13.5209 29.8092 14.4107 23.1921C14.5941 21.8223 14.9922 21.1744 16.604 21.2018C23.0376 21.3149 29.4751 21.1881 35.9087 21.272C41.5325 21.3462 46.9377 22.3784 51.6736 25.6801C56.5383 29.0696 59.1863 33.786 59.5278 39.6635C60.3688 54.1483 51.297 67.2731 37.2454 72.128C33.1885 73.5291 29.0185 74.2823 24.7314 74.2979C16.9592 74.3272 9.1889 74.3096 1.41668 74.3057C1.02836 74.3057 0.641993 74.2569 0 74.214C2.44114 62.7245 4.85886 51.3403 7.34292 39.6459C7.65904 40.2918 7.85417 40.6586 8.02004 41.0372C9.94212 45.4707 12.473 49.5334 15.5327 53.2604C16.1962 54.0683 16.3621 54.7942 16.1201 55.805C15.4644 58.5388 14.9239 61.298 14.3502 63.9948C14.518 64.1334 14.5922 64.2465 14.6624 64.2446C20.1379 64.0768 25.7305 64.5431 31.0654 63.5831C40.51 61.8854 46.7406 53.8576 47.0977 44.2394C47.3436 37.5697 43.4897 32.5079 36.8161 31.6883C31.7367 31.0619 26.5637 31.257 21.3516 31.0873Z" fill="url(#paint0_linear_514_7265)"/>
<path d="M4.84517 27.2784C3.38361 18.829 4.26952 11.0373 11.2944 5.12082C14.7131 2.24063 18.809 1.00542 23.1995 0.745896C30.9464 0.28928 38.102 2.45137 44.7951 6.12186C58.357 13.5623 68.4006 24.283 74.198 38.725C76.5689 44.6317 77.6968 50.7862 76.5455 57.1789C74.8556 66.5668 67.9049 72.7955 58.357 73.3809C55.7695 73.5389 53.1644 73.4043 50.5691 73.4043C50.5652 73.2209 50.5594 73.0355 50.5555 72.8521C51.7224 72.7213 52.901 72.6628 54.0523 72.4481C63.1866 70.7368 68.5859 64.2974 68.7635 54.8646C68.865 49.4183 67.5654 44.2453 65.1984 39.3865C58.5423 25.7173 48.2841 15.8805 33.8968 10.6392C29.0536 8.87521 24.025 8.17858 18.8695 9.18742C10.7304 10.7797 5.30178 17.026 4.85102 25.3465C4.8159 25.9924 4.84517 26.6364 4.84517 27.2784Z" fill="url(#paint1_linear_514_7265)"/>
<path d="M34.572 60.6756C32.5251 61.1497 30.4879 61.6668 28.4253 62.0649C28.0253 62.143 27.4613 61.8678 27.1023 61.5888C18.1807 54.6576 11.3666 46.1907 8.14103 35.1793C6.81412 30.6521 6.38872 26.0411 7.7332 21.434C9.43673 15.5975 14.2956 11.6401 20.3721 11.1504C22.3234 10.9943 24.2962 11.125 25.6153 11.125C23.9782 11.5875 21.6151 11.9075 19.5759 12.8968C13.8273 15.6872 11.9676 20.7881 12.2057 26.7943C12.5277 34.9431 16.1045 41.8158 21.0102 48.0874C24.5753 52.6438 28.8097 56.488 33.7173 59.575C34.0061 59.7565 34.2774 59.9653 34.5564 60.1604C34.5623 60.336 34.5662 60.5058 34.572 60.6756Z" fill="url(#paint2_linear_514_7265)"/>
<path d="M46.1455 70.177C47.8998 68.6959 49.535 67.2773 51.221 65.9211C51.5722 65.6382 52.0952 65.486 52.5576 65.4391C61.3758 64.5532 65.9361 59.7451 66.3127 51.0089C67.1127 56.4571 66.5351 61.6164 62.6773 65.9172C59.042 69.9663 52.0932 71.7088 46.1455 70.177Z" fill="url(#paint3_linear_514_7265)"/>
<defs>
<linearGradient id="paint0_linear_514_7265" x1="-0.000682972" y1="47.7555" x2="59.5823" y2="47.7555" gradientUnits="userSpaceOnUse">
<stop offset="0.197" stop-color="#662D91"/>
<stop offset="0.9532" stop-color="#0F9DFE"/>
</linearGradient>
<linearGradient id="paint1_linear_514_7265" x1="4.24829" y1="37.0743" x2="76.9975" y2="37.0743" gradientUnits="userSpaceOnUse">
<stop offset="0.197" stop-color="#662D91"/>
<stop offset="0.9532" stop-color="#0F9DFE"/>
</linearGradient>
<linearGradient id="paint2_linear_514_7265" x1="6.91184" y1="36.5791" x2="34.5718" y2="36.5791" gradientUnits="userSpaceOnUse">
<stop offset="0.197" stop-color="#662D91"/>
<stop offset="0.9532" stop-color="#0F9DFE"/>
</linearGradient>
<linearGradient id="paint3_linear_514_7265" x1="46.1454" y1="60.8678" x2="66.6235" y2="60.8678" gradientUnits="userSpaceOnUse">
<stop offset="0.197" stop-color="#662D91"/>
<stop offset="0.9532" stop-color="#0F9DFE"/>
</linearGradient>
</defs>
</svg>
