<svg width="300" height="110" viewBox="0 0 300 110" fill="none" xmlns="http://www.w3.org/2000/svg">
<path d="M204.681 107.615H168.254L187.671 77.543H170.821V67.519H206.125L186.708 97.5909H199.866C202.594 97.5909 204.681 99.8185 204.681 102.364V107.615ZM300 72.1332C300 74.8381 297.753 77.0657 295.025 77.0657H290.051V89.9536C290.051 93.9314 293.26 97.2727 297.272 97.2727H300V107.297H297.272C287.804 107.297 279.941 99.5003 279.941 89.9536V51.9262H284.916C287.644 51.9262 289.89 54.1538 289.89 56.8586V67.0417H299.84V72.1332H300ZM233.886 67.2008C245.28 67.2008 254.587 76.4292 254.587 87.8852C254.587 99.3412 245.28 108.57 233.886 108.57C229.714 108.57 225.863 107.297 222.653 105.228V107.456H212.544V52.4035H222.653V70.5421C225.863 68.4737 229.714 67.2008 233.886 67.2008ZM261.166 107.615V67.519H270.955V107.615H261.166ZM261.166 62.1093V52.4035H270.955V62.1093H261.166ZM158.946 107.615C156.058 107.615 153.49 105.865 152.367 103.16L150.281 97.5909H129.42L125.248 107.615H114.336L135.518 55.5857C136.32 53.6764 138.085 52.4035 140.171 52.4035C142.258 52.4035 144.183 53.6764 144.825 55.5857L164.884 107.615H158.946ZM233.886 98.7047C239.824 98.7047 244.638 93.9314 244.638 88.0443C244.638 82.1572 239.824 77.3839 233.886 77.3839C227.949 77.3839 223.135 82.1572 223.135 88.0443C223.135 93.9314 227.949 98.7047 233.886 98.7047ZM133.271 88.0443H146.43L140.011 71.4968L133.271 88.0443Z" fill="white"/>
<path d="M83.1992 78.5646L38.7834 0.527588L0 68.7496H54.0714L47.3125 57.0039C46.0251 54.5903 43.4503 53.1422 40.8754 53.1422H26.5529L38.7834 31.5815L83.1992 109.619L115.385 53.1422H97.6827L83.1992 78.5646Z" fill="url(#paint0_linear)"/>
<defs>
<linearGradient id="paint0_linear" x1="-7.38851e-07" y1="7.55897" x2="109.763" y2="108.689" gradientUnits="userSpaceOnUse">
<stop stop-color="#66FF00"/>
<stop offset="0.518766" stop-color="#16B862"/>
<stop offset="1" stop-color="#00858F"/>
</linearGradient>
</defs>
</svg>
