<svg width="100px" height="26px" viewBox="0 0 460 120" xmlns="http://www.w3.org/2000/svg" xmlns:xlink="http://www.w3.org/1999/xlink"><title>Group 2</title><g id="Page-1" stroke="none" stroke-width="1" fill="none" fill-rule="evenodd"><g id="Logo_lockup_Large_white_web" transform="translate(-60.000000, -60.000000)" fill="#FFFFFF" fill-rule="nonzero"><g id="Group-2" transform="translate(60.000000, 60.000000)"><g id="logo_2"><g id="Group-Copy" transform="translate(59.504132, 60.000000) rotate(-45.000000) translate(-59.504132, -60.000000) translate(40.661157, 41.311475)"><g id="Group"><path d="M34.0343032,3.76883759 C35.2359229,4.96060794 35.2359229,6.89284944 34.0343032,8.08461975 L7.92560439,33.9793126 C6.7239847,35.171083 4.77577426,35.171083 3.5741546,33.9793126 C2.37253491,32.7875425 2.37253491,30.8553009 3.5741546,29.6635306 L29.6828533,3.76883759 C30.884473,2.57706727 32.8326835,2.57706727 34.0343032,3.76883759 Z" id="Path-5"></path><path d="M11.0329283,23.3976287 C12.7267221,23.3906318 14.1054638,22.0118901 14.1124342,20.3180963 L14.1893133,1.64290876 C14.1962572,-0.0508850433 12.8288166,-1.41832564 11.1350228,-1.41138182 C9.44122897,-1.40438495 8.06248719,-0.0256431917 8.05551685,1.66815061 L7.97863769,20.3433381 C7.97169388,22.037132 9.33913449,23.4045725 11.0329283,23.3976287 Z" id="Path-7" transform="translate(11.083976, 10.993123) rotate(45.000000) translate(-11.083976, -10.993123) "></path><path d="M26.7486955,14.0743097 C28.4424894,14.0673659 29.8099299,15.4348065 29.8029861,17.1286003 L29.726107,35.803788 C29.7191366,37.4975817 28.3403949,38.8763235 26.6466011,38.8833204 C24.9528073,38.8902642 23.5853667,37.5228236 23.5923105,35.8290299 L23.6691896,17.1538422 C23.67616,15.4600484 25.0549018,14.0813066 26.7486955,14.0743097 Z" id="Path-8" transform="translate(26.697648, 26.478815) rotate(45.000000) translate(-26.697648, -26.478815) "></path></g></g><g id="Group-3-Copy" transform="translate(59.710355, 60.003570) rotate(-45.000000) translate(-59.710355, -60.003570) translate(17.561594, 18.200291)"><path d="M70.14815,-0.00280143056 L56.8472263,13.1890983 L18.5538558,13.1893973 C15.6908645,13.1893973 13.3630898,15.4621486 13.3046175,18.287779 L13.3034912,18.3967261 L13.3031523,56.3762536 L0.00222867984,69.5681534 L0.00222867984,14.2308631 C0.00222867984,6.44860107 6.29986688,0.125096308 14.1162441,-0.000595561179 L14.3535641,-0.00280143056 L70.14815,-0.00280143056 Z" id="Combined-Shape"></path><path d="M84.0084013,13.7441995 L84.0084013,69.4285487 C84.0084013,77.0209994 77.8646945,83.1902725 70.2389606,83.3128985 L70.007429,83.3147589 L13.8628412,83.3147589 L27.1637649,70.1225603 L65.457113,70.1228592 C68.3201043,70.1228592 70.647879,67.850108 70.7063512,65.0244774 L70.7074776,64.9155304 L70.7071388,26.9360992 L84.0084013,13.7441995 Z" id="Combined-Shape"></path></g></g><path d="M185.4,95.4 C193.266667,95.4 200.116667,93.4166667 205.95,89.45 C211.783333,85.4833333 215.866667,79.9333333 218.2,72.8 L218.2,72.8 L202.1,72.8 C200.5,76.1333333 198.25,78.65 195.35,80.35 C192.45,82.05 189.1,82.9 185.3,82.9 C181.233333,82.9 177.616667,81.95 174.45,80.05 C171.283333,78.15 168.816667,75.45 167.05,71.95 C165.283333,68.45 164.4,64.4 164.4,59.8 C164.4,55.1333333 165.283333,51.0666667 167.05,47.6 C168.816667,44.1333333 171.283333,41.45 174.45,39.55 C177.616667,37.65 181.233333,36.7 185.3,36.7 C189.1,36.7 192.45,37.5333333 195.35,39.2 C198.25,40.8666667 200.5,43.3666667 202.1,46.7 L202.1,46.7 L218.2,46.7 C215.866667,39.6333333 211.766667,34.1 205.9,30.1 C200.033333,26.1 193.2,24.1 185.4,24.1 C178.733333,24.1 172.716667,25.6166667 167.35,28.65 C161.983333,31.6833333 157.75,35.9166667 154.65,41.35 C151.55,46.7833333 150,52.9333333 150,59.8 C150,66.6666667 151.55,72.8 154.65,78.2 C157.75,83.6 161.983333,87.8166667 167.35,90.85 C172.716667,93.8833333 178.733333,95.4 185.4,95.4 Z M267.6,95.5 C274.133333,95.5 280.133333,93.9666667 285.6,90.9 C291.066667,87.8333333 295.383333,83.5833333 298.55,78.15 C301.716667,72.7166667 303.3,66.5666667 303.3,59.7 C303.3,52.9 301.716667,46.7833333 298.55,41.35 C295.383333,35.9166667 291.083333,31.6666667 285.65,28.6 C280.216667,25.5333333 274.2,24 267.6,24 C261.066667,24 255.066667,25.5333333 249.6,28.6 C244.133333,31.6666667 239.8,35.9166667 236.6,41.35 C233.4,46.7833333 231.8,52.9 231.8,59.7 C231.8,66.5666667 233.4,72.7166667 236.6,78.15 C239.8,83.5833333 244.133333,87.8333333 249.6,90.9 C255.066667,93.9666667 261.066667,95.5 267.6,95.5 Z M267.6,83 C263.4,83 259.683333,82.05 256.45,80.15 C253.216667,78.25 250.7,75.5333333 248.9,72 C247.1,68.4666667 246.2,64.3666667 246.2,59.7 C246.2,55.0333333 247.1,50.95 248.9,47.45 C250.7,43.95 253.216667,41.2666667 256.45,39.4 C259.683333,37.5333333 263.4,36.6 267.6,36.6 C271.8,36.6 275.5,37.5333333 278.7,39.4 C281.9,41.2666667 284.4,43.95 286.2,47.45 C288,50.95 288.9,55.0333333 288.9,59.7 C288.9,64.3666667 288,68.4666667 286.2,72 C284.4,75.5333333 281.9,78.25 278.7,80.15 C275.5,82.05 271.8,83 267.6,83 Z M351.1,95.5 C357.633333,95.5 363.633333,93.9666667 369.1,90.9 C374.566667,87.8333333 378.883333,83.5833333 382.05,78.15 C385.216667,72.7166667 386.8,66.5666667 386.8,59.7 C386.8,52.9 385.216667,46.7833333 382.05,41.35 C378.883333,35.9166667 374.583333,31.6666667 369.15,28.6 C363.716667,25.5333333 357.7,24 351.1,24 C344.566667,24 338.566667,25.5333333 333.1,28.6 C327.633333,31.6666667 323.3,35.9166667 320.1,41.35 C316.9,46.7833333 315.3,52.9 315.3,59.7 C315.3,66.5666667 316.9,72.7166667 320.1,78.15 C323.3,83.5833333 327.633333,87.8333333 333.1,90.9 C338.566667,93.9666667 344.566667,95.5 351.1,95.5 Z M351.1,83 C346.9,83 343.183333,82.05 339.95,80.15 C336.716667,78.25 334.2,75.5333333 332.4,72 C330.6,68.4666667 329.7,64.3666667 329.7,59.7 C329.7,55.0333333 330.6,50.95 332.4,47.45 C334.2,43.95 336.716667,41.2666667 339.95,39.4 C343.183333,37.5333333 346.9,36.6 351.1,36.6 C355.3,36.6 359,37.5333333 362.2,39.4 C365.4,41.2666667 367.9,43.95 369.7,47.45 C371.5,50.95 372.4,55.0333333 372.4,59.7 C372.4,64.3666667 371.5,68.4666667 369.7,72 C367.9,75.5333333 365.4,78.25 362.2,80.15 C359,82.05 355.3,83 351.1,83 Z M416.2,94.8 L416.2,63.7 L441.6,94.8 L459.3,94.8 L429.7,59.6 L458.5,25 L441.6,25 L416.2,56.3 L416.2,25 L402.2,25 L402.2,94.8 L416.2,94.8 Z" id="COOK"></path></g></g></g></svg>