<svg width="52" height="12" viewBox="0 0 52 12" fill="none" xmlns="http://www.w3.org/2000/svg">
<path d="M4.40262 11.7769C5.9627 11.7769 7.14933 11.3971 7.96257 10.6374C8.7758 9.87781 9.18242 8.74899 9.18242 7.25098V5.14738C9.18242 3.64936 8.7758 2.52054 7.96257 1.76091C7.14933 1.00128 5.9627 0.621461 4.40262 0.621461H0.166641C0.0746104 0.621461 0 0.693894 0 0.783245V11.6151C0 11.7045 0.0746104 11.7769 0.166641 11.7769H4.40262ZM2.20886 9.86453V2.53382H4.4358C5.32095 2.53382 5.96823 2.75427 6.37762 3.19518C6.787 3.63608 6.99167 4.26557 6.99167 5.08363V7.31472C6.99167 8.12216 6.787 8.74899 6.37762 9.19521C5.96823 9.64142 5.32095 9.86453 4.4358 9.86453H2.20886ZM14.7521 12C15.5044 12 16.1241 11.8858 16.6109 11.6574C17.0977 11.4289 17.4877 11.1527 17.7809 10.8287C17.9501 10.6417 18.1407 10.3917 18.3527 10.0788C18.4033 10.0041 18.3819 9.90381 18.305 9.85471C18.3002 9.85165 18.2953 9.84883 18.2902 9.84626L16.8809 9.13681C16.8041 9.09813 16.7095 9.12303 16.6633 9.19412C16.4596 9.50751 16.2762 9.73629 16.113 9.88047C15.8364 10.1248 15.4049 10.247 14.8185 10.247C14.2431 10.247 13.7563 10.077 13.358 9.73704C12.9597 9.39707 12.7494 8.95616 12.7273 8.41433H18.4583C18.6021 8.41433 18.7186 8.30115 18.7186 8.16154V7.72907C18.7186 6.92162 18.5527 6.21246 18.2208 5.60156C17.8888 4.99067 17.4241 4.51258 16.8266 4.1673C16.2292 3.82201 15.5266 3.64936 14.7189 3.64936C13.9001 3.64936 13.1809 3.81669 12.5613 4.15136C11.9417 4.48602 11.4604 4.9588 11.1174 5.56969C10.7744 6.18058 10.6029 6.90038 10.6029 7.72907V7.9203C10.6029 8.74899 10.7772 9.46878 11.1257 10.0797C11.4743 10.6906 11.9611 11.1633 12.5862 11.498C13.2114 11.8327 13.9333 12 14.7521 12ZM12.7439 6.91631C12.8213 6.45947 13.026 6.09293 13.358 5.8167C13.6899 5.54047 14.138 5.40236 14.7023 5.40236C15.2444 5.40236 15.6843 5.54047 16.0217 5.8167C16.3592 6.09293 16.55 6.45947 16.5943 6.91631H12.7439ZM22.4619 11.6151V7.13942H26.777V11.6151C26.777 11.7045 26.8516 11.7769 26.9436 11.7769H28.8011C28.8931 11.7769 28.9677 11.7045 28.9677 11.6151V0.783245C28.9677 0.693894 28.8931 0.621461 28.8011 0.621461H26.9436C26.8516 0.621461 26.777 0.693894 26.777 0.783245V5.22706H22.4619V0.783245C22.4619 0.693894 22.3873 0.621461 22.2952 0.621461H20.4378C20.3458 0.621461 20.2711 0.693894 20.2711 0.783245V11.6151C20.2711 11.7045 20.3458 11.7769 20.4378 11.7769H22.2952C22.3873 11.7769 22.4619 11.7045 22.4619 11.6151ZM32.5494 0.0860258L33.1104 0.399018C33.3174 0.51444 33.4449 0.728448 33.4449 0.960131V1.58072C33.4449 1.8124 33.3174 2.02641 33.1104 2.14183L32.5494 2.45482C32.3438 2.56952 32.0908 2.56952 31.8852 2.45482L31.3242 2.14183C31.1172 2.02641 30.9897 1.8124 30.9897 1.58072V0.960131C30.9897 0.728448 31.1172 0.51444 31.3242 0.399018L31.8852 0.0860258C32.0908 -0.0286753 32.3438 -0.0286753 32.5494 0.0860258ZM33.2429 11.6151V4.03426C33.2429 3.9449 33.1682 3.87247 33.0762 3.87247H31.3183C31.2263 3.87247 31.1517 3.9449 31.1517 4.03426V11.6151C31.1517 11.7045 31.2263 11.7769 31.3183 11.7769H33.0762C33.1682 11.7769 33.2429 11.7045 33.2429 11.6151ZM40.5758 11.6647L43.0907 4.08386C43.1189 3.99881 43.0708 3.90766 42.9832 3.88026C42.9667 3.8751 42.9494 3.87247 42.9321 3.87247H41.0623C40.9881 3.87247 40.9227 3.9202 40.9022 3.98951L39.0283 10.3107H38.7296L36.8556 3.98951C36.8351 3.9202 36.7698 3.87247 36.6955 3.87247H34.8257C34.7337 3.87247 34.6591 3.9449 34.6591 4.03426C34.6591 4.05109 34.6618 4.06783 34.6671 4.08386L37.182 11.6647C37.2042 11.7316 37.2683 11.7769 37.3406 11.7769H40.4172C40.4895 11.7769 40.5536 11.7316 40.5758 11.6647ZM48.0334 12C48.7858 12 49.4054 11.8858 49.8922 11.6574C50.3791 11.4289 50.7691 11.1527 51.0623 10.8287C51.2315 10.6417 51.422 10.3917 51.634 10.0788C51.6846 10.0041 51.6633 9.90381 51.5864 9.85471C51.5816 9.85165 51.5766 9.84883 51.5715 9.84626L50.1622 9.13681C50.0854 9.09813 49.9908 9.12303 49.9446 9.19412C49.741 9.50751 49.5576 9.73629 49.3944 9.88047C49.1177 10.1248 48.6862 10.247 48.0998 10.247C47.5245 10.247 47.0376 10.077 46.6393 9.73704C46.241 9.39707 46.0308 8.95616 46.0086 8.41433H46.8182H47.965H51.7396C51.8834 8.41433 52 8.30115 52 8.16154V7.72907C52 6.92162 51.834 6.21246 51.5021 5.60156C51.1702 4.99067 50.7055 4.51258 50.108 4.1673C49.5105 3.82201 48.8079 3.64936 48.0002 3.64936C47.1815 3.64936 46.4623 3.81669 45.8427 4.15136C45.2231 4.48602 44.7418 4.9588 44.3988 5.56969C44.0558 6.18058 43.8843 6.90038 43.8843 7.72907V7.9203C43.8843 8.74899 44.0585 9.46878 44.4071 10.0797C44.7556 10.6906 45.2424 11.1633 45.8676 11.498C46.4927 11.8327 47.2147 12 48.0334 12ZM46.0252 6.91631C46.1027 6.45947 46.3074 6.09293 46.6393 5.8167C46.9713 5.54047 47.4194 5.40236 47.9836 5.40236C48.5258 5.40236 48.9656 5.54047 49.3031 5.8167C49.6405 6.09293 49.8314 6.45947 49.8757 6.91631H46.0252Z" fill="white"/>
</svg>
