<svg width="152" height="45" viewBox="0 0 152 45" fill="none" xmlns="http://www.w3.org/2000/svg">
<path d="M29.1957 11.0738H27.117L31.8465 6.34438C32.9308 5.26237 33.2376 3.70973 32.6516 2.2932C32.0656 0.878985 30.7506 0 29.2188 0H9.29509C4.17114 0 0 4.17114 0 9.29509V40.2695C0 42.1036 1.40268 44.0023 3.74895 44.0023C4.72483 44.0023 5.65227 43.6124 6.36053 42.9042L31.8303 17.4344C32.9169 16.3477 33.2261 14.7928 32.6378 13.374C32.0495 11.9551 30.7322 11.0738 29.1957 11.0738ZM2.76846 35.4224L24.3232 13.8654C24.3578 13.8492 24.3947 13.8423 24.4339 13.8423H29.1934C29.7701 13.8423 30.0031 14.2552 30.077 14.4329C30.1508 14.6105 30.2777 15.0673 29.8693 15.4757L4.40185 40.9455C4.20805 41.1393 3.99581 41.2315 3.74895 41.2315C3.2737 41.2315 2.76846 40.8947 2.76846 40.2672V35.4201V35.4224ZM2.76846 31.4843V9.29509C2.76846 5.6961 5.6961 2.76846 9.29509 2.76846H29.2164C29.7886 2.76846 30.0193 3.1768 30.0931 3.35445C30.1669 3.52978 30.2915 3.98427 29.8878 4.388L22.5145 11.7613C22.4291 11.8305 22.3553 11.8974 22.2884 11.9643L2.76846 31.482V31.4843Z" fill="white"/>
<path d="M81.0508 10.7646H82.9333L89.5615 31.9433L96.2288 10.7646H98.1898L91.0518 32.8454H88.1103L81.9921 13.2355L75.5992 32.8454H72.6185L65.8335 10.7646H67.7553L74.1481 31.9433L81.0508 10.7646Z" fill="white"/>
<path d="M105.21 33.2376C103.745 33.2376 102.529 32.8639 101.563 32.1187C100.596 31.3735 99.8763 30.3792 99.4057 29.138C98.935 27.8968 98.6997 26.5172 98.6997 24.9992C98.6997 23.4811 98.9419 22.0254 99.4264 20.7842C99.9109 19.543 100.635 18.5879 101.602 17.9211C102.569 17.2544 103.773 16.9222 105.21 16.9222C106.754 16.9222 107.981 17.2682 108.897 17.9604C109.813 18.6525 110.466 19.5545 110.858 20.6642L110.936 20.452V16.9222H112.74V32.8454H111.25L110.936 29.6225L110.858 29.551C110.44 30.5176 109.774 31.3735 108.858 32.1187C107.942 32.8639 106.726 33.2376 105.21 33.2376ZM105.877 31.5904C107.55 31.5904 108.805 31.009 109.642 29.8463C110.477 28.6835 110.897 27.0801 110.897 25.0407C110.897 22.8697 110.459 21.2617 109.584 20.2166C108.708 19.1716 107.473 18.6479 105.877 18.6479C104.02 18.6479 102.661 19.2431 101.798 20.4312C100.935 21.6216 100.504 23.1443 100.504 25.0015C100.504 26.8586 100.949 28.5174 101.837 29.7471C102.725 30.9767 104.073 31.5904 105.877 31.5904Z" fill="white"/>
<path d="M116.31 32.8454V10.7646H118.114V32.8454H116.31Z" fill="white"/>
<path d="M122.271 32.8454V10.7646H124.075V32.8454H122.271Z" fill="white"/>
<path d="M134.782 33.2376C133.082 33.2376 131.677 32.8316 130.565 32.0218C129.453 31.212 128.622 30.1715 128.076 28.9027C127.527 27.6338 127.266 26.3211 127.291 24.9622C127.291 23.5503 127.58 22.2307 128.154 21.001C128.729 19.7714 129.573 18.7863 130.683 18.0411C131.795 17.2959 133.147 16.9222 134.743 16.9222C136.729 16.9222 138.37 17.5705 139.664 18.8647C140.958 20.159 141.683 21.8916 141.839 24.0602C141.865 24.1917 141.879 24.4778 141.879 24.923H129.015C129.015 27.0155 129.511 28.6627 130.505 29.8647C131.499 31.0667 132.923 31.6688 134.78 31.6688C136.113 31.6688 137.269 31.3158 138.25 30.6099C139.23 29.9039 139.837 28.9488 140.072 27.7468H141.837C141.523 29.3687 140.732 30.6883 139.463 31.708C138.194 32.7278 136.632 33.2376 134.778 33.2376H134.782ZM129.135 23.8641H140.038C140.012 23.1835 139.823 22.4268 139.47 21.5893C139.117 20.7519 138.554 20.0205 137.784 19.393C137.013 18.7655 135.998 18.4518 134.745 18.4518C133.02 18.4518 131.698 18.987 130.784 20.0598C129.868 21.1325 129.319 22.3991 129.137 23.8641H129.135Z" fill="white"/>
<path d="M148.509 32.8454C147.672 32.8454 147.136 32.6101 146.901 32.1394C146.666 31.6688 146.548 31.1059 146.548 30.453V18.3733H143.92V16.9222C144.862 16.9222 145.515 16.8645 145.881 16.7445C146.246 16.6269 146.47 16.2808 146.548 15.7063C146.627 15.1319 146.666 14.1629 146.666 12.8041H148.274V16.9222H152V18.3733H148.274V31.3158H152V32.8454H148.509Z" fill="white"/>
<path d="M59.2609 32.8454V18.7655H56.79V16.8829H59.2609V13.3532C59.2609 12.4373 59.4501 11.7775 59.8284 11.3737C60.2068 10.9677 60.8804 10.767 61.8494 10.767H67.7554L68.383 12.8456H61.8102V16.8853H66.3205V18.7678H61.8102V32.8477H59.2609V32.8454Z" fill="#648FF3"/>
</svg>
