<svg xmlns="http://www.w3.org/2000/svg" viewBox="0 0 130 32" class="c-hzfiQh"><path fill-rule="evenodd" clip-rule="evenodd" d="M.623 20.613A9.982 9.982 0 0 1 0 17.122c0-1.455.208-2.784.664-4.031C4.32 3.159 17.404 0 33.314 0c15.908 0 25.96 4.405 28.537 11.387a9.983 9.983 0 0 1 .623 3.491c0 1.455-.208 2.784-.665 4.031C58.154 28.841 45.07 32 29.16 32 13.252 32 3.2 27.594.624 20.613Zm20.477-1.87c.83 2.244 4.362 4.114 9.305 4.114 5.442 0 9.637-1.621 10.925-5.07.416-1.04.457-1.663.457-2.369 0-.623 0-1.164-.415-2.16-.83-2.245-4.361-4.115-9.305-4.115-5.442 0-9.637 1.621-10.925 5.07-.415 1.04-.457 1.663-.457 2.369 0 .623 0 1.164.416 2.16Zm5.72-1.558c.353.955 1.855 1.751 3.96 1.751 2.317 0 4.103-.69 4.651-2.158.177-.443.195-.707.195-1.009 0-.266 0-.495-.177-.92-.353-.955-1.856-1.751-3.961-1.751-2.317 0-4.103.69-4.65 2.159a2.387 2.387 0 0 0-.195 1.008c0 .266 0 .495.176.92Zm60.4-2.996c0 5.493-3.912 11.239-9.528 11.239-3.635 0-7.12-2.101-7.12-7.341 0-5.493 3.91-11.24 9.527-11.24 3.635 0 7.12 2.102 7.12 7.342Zm-7.221-3.494c-2.808 0-5.115 4.304-5.115 7.29 0 2.583 1.354 3.595 2.908 3.595 2.783 0 5.115-4.303 5.115-7.29 0-2.582-1.354-3.595-2.908-3.595Zm9.369 14.302H85.33l4.89-17.719h5.515l.401 12.252 6.92-12.252h6.118l-4.889 17.72h-4.037l3.159-11.594-6.744 11.593h-3.686l-.451-11.618-3.16 11.618Zm15.878 0h4.137l3.209-11.492 2.909 11.492h4.513l4.889-17.719h-4.137l-3.184 11.492-2.909-11.492h-4.538l-4.889 17.72Zm19.865 0h-4.137l4.889-17.719H130l-4.889 17.72Z" fill="currentColor"></path></svg>